<?xml version="1.0" standalone="no"?>
<!DOCTYPE svg PUBLIC "-//W3C//DTD SVG 20010904//EN"
 "http://www.w3.org/TR/2001/REC-SVG-20010904/DTD/svg10.dtd">
<svg version="1.0" xmlns="http://www.w3.org/2000/svg"
 width="300.000000pt" height="300.000000pt" viewBox="0 0 300.000000 300.000000"
 preserveAspectRatio="xMidYMid meet">
<metadata>
Created by potrace 1.10, written by Peter Selinger 2001-2011
</metadata>
<g transform="translate(0.000000,300.000000) scale(0.100000,-0.100000)"
fill="#000000" stroke="none">
<path d="M51 2978 c-1 -23 -6 -28 -28 -29 -25 -2 -25 -2 -5 -6 19 -4 21 -7 11
-19 -9 -11 -8 -14 5 -14 9 0 16 8 16 20 0 13 7 20 20 20 11 0 20 5 20 11 0 6
-6 9 -14 6 -10 -4 -16 2 -19 16 -4 18 -5 17 -6 -5z"/>
<path d="M150 2978 c0 -21 5 -28 20 -28 15 0 20 6 19 28 0 23 -2 24 -8 7 -8
-19 -8 -19 -19 0 -11 18 -11 18 -12 -7z"/>
<path d="M251 2978 c-1 -22 4 -28 19 -28 15 0 20 6 19 28 -1 16 -3 20 -6 10
-2 -10 -8 -18 -13 -18 -5 0 -11 8 -13 18 -3 10 -5 6 -6 -10z"/>
<path d="M381 2986 c0 -12 -6 -16 -16 -12 -9 3 -15 0 -15 -9 0 -8 9 -15 20
-15 13 0 20 -7 20 -20 0 -15 7 -20 25 -20 18 0 25 5 25 20 0 15 7 20 25 20 18
0 25 -5 25 -20 0 -13 7 -20 19 -20 10 0 21 9 24 20 3 12 14 20 26 20 17 0 21
6 20 28 -1 16 -3 20 -6 10 -2 -10 -8 -18 -13 -18 -5 0 -11 8 -13 18 -3 10 -5
6 -6 -10 -1 -23 -6 -28 -26 -28 -20 0 -25 5 -26 28 -1 16 -3 20 -6 10 -2 -10
-11 -18 -18 -18 -7 0 -16 8 -18 18 -3 10 -5 6 -6 -10 -1 -23 -6 -28 -25 -28
-19 0 -26 6 -29 28 -2 15 -5 19 -6 8z"/>
<path d="M641 2978 c-1 -22 4 -28 19 -28 15 0 20 7 20 28 -1 25 -1 25 -12 7
-11 -19 -11 -19 -19 0 -6 17 -8 16 -8 -7z"/>
<path d="M766 2983 c-6 -15 -8 -15 -16 -3 -8 12 -10 10 -10 -7 0 -16 6 -23 20
-23 15 0 20 7 20 25 0 29 -5 32 -14 8z"/>
<path d="M832 2980 c2 -17 10 -26 26 -28 14 -2 22 -10 22 -23 0 -14 7 -19 25
-19 18 0 25 5 25 20 0 13 7 20 20 20 11 0 20 5 20 10 0 6 -6 10 -14 10 -8 0
-17 8 -19 18 -3 10 -5 6 -6 -10 -1 -23 -6 -28 -26 -28 -20 0 -25 5 -26 28 -1
16 -3 20 -6 10 -2 -10 -8 -18 -13 -18 -5 0 -14 8 -20 18 -9 15 -10 14 -8 -8z"/>
<path d="M1031 2978 c-1 -22 4 -28 19 -28 15 0 20 6 19 28 -1 16 -3 20 -6 10
-2 -10 -8 -18 -13 -18 -5 0 -11 8 -13 18 -3 10 -5 6 -6 -10z"/>
<path d="M1131 2978 c-1 -22 4 -28 19 -28 15 0 20 6 19 28 -1 16 -3 20 -6 10
-2 -10 -8 -18 -13 -18 -5 0 -11 8 -13 18 -3 10 -5 6 -6 -10z"/>
<path d="M1261 2986 c0 -12 -6 -16 -16 -12 -9 3 -15 0 -15 -8 0 -14 67 -32 78
-22 3 3 -4 6 -16 6 -15 0 -22 8 -25 28 -2 15 -5 19 -6 8z"/>
<path d="M1321 2978 c-1 -23 3 -28 24 -28 21 0 25 5 25 28 -1 23 -2 24 -11 10
-5 -10 -14 -18 -19 -18 -5 0 -11 8 -13 18 -3 10 -5 6 -6 -10z"/>
<path d="M1420 2983 c0 -18 6 -23 24 -23 20 0 23 4 19 21 -4 16 -8 18 -14 7
-7 -11 -11 -10 -19 2 -8 12 -10 11 -10 -7z"/>
<path d="M1520 2983 c0 -16 6 -23 20 -23 14 0 20 7 20 23 0 18 -2 19 -10 7 -9
-13 -11 -13 -20 0 -8 12 -10 11 -10 -7z"/>
<path d="M1621 2978 c-1 -22 4 -28 19 -28 15 0 20 6 19 28 -1 16 -3 20 -6 10
-2 -10 -8 -18 -13 -18 -5 0 -11 8 -13 18 -3 10 -5 6 -6 -10z"/>
<path d="M1751 2986 c0 -12 -6 -16 -16 -12 -8 3 -18 -1 -22 -8 -5 -7 -15 -16
-23 -19 -8 -3 4 -3 28 0 28 4 42 2 42 -6 0 -6 11 -11 25 -11 14 0 25 4 25 9 0
5 10 11 23 13 15 2 23 10 24 28 1 14 0 18 -3 8 -3 -10 -12 -18 -19 -18 -7 0
-16 8 -18 18 -3 10 -5 6 -6 -10 -1 -23 -6 -28 -25 -28 -19 0 -26 6 -29 28 -2
15 -5 19 -6 8z"/>
<path d="M1911 2978 c-1 -22 4 -28 19 -28 15 0 20 6 19 28 -1 16 -3 20 -6 10
-2 -10 -8 -18 -13 -18 -5 0 -11 8 -13 18 -3 10 -5 6 -6 -10z"/>
<path d="M2011 2978 c-1 -22 4 -28 19 -28 15 0 20 6 19 28 -1 16 -3 20 -6 10
-2 -10 -8 -18 -13 -18 -5 0 -11 8 -13 18 -3 10 -5 6 -6 -10z"/>
<path d="M2111 2978 c-1 -22 4 -28 20 -28 12 0 23 -8 26 -20 3 -11 14 -20 24
-20 12 0 19 7 19 20 0 15 7 20 25 20 18 0 25 -5 25 -20 0 -15 7 -20 25 -20 18
0 25 5 25 20 0 13 7 20 20 20 11 0 20 5 20 10 0 6 -6 10 -14 10 -8 0 -17 8
-19 18 -3 10 -5 6 -6 -10 -1 -23 -6 -28 -26 -28 -20 0 -25 5 -26 28 l0 27 -10
-25 -10 -25 -14 25 -14 25 -1 -27 c0 -23 -4 -28 -25 -28 -20 0 -25 5 -26 28
l0 27 -11 -25 -11 -25 -7 25 -8 25 -1 -27z"/>
<path d="M2401 2978 c-1 -22 4 -28 19 -28 15 0 20 7 20 28 -1 25 -1 25 -12 7
-11 -19 -11 -19 -19 0 -6 17 -8 16 -8 -7z"/>
<path d="M2501 2978 c-1 -22 4 -28 19 -28 15 0 20 6 19 28 -1 16 -3 20 -6 10
-2 -10 -8 -18 -13 -18 -5 0 -11 8 -13 18 -3 10 -5 6 -6 -10z"/>
<path d="M2631 2988 c0 -10 -8 -18 -16 -18 -8 0 -15 -4 -15 -10 0 -5 9 -10 20
-10 13 0 20 -7 20 -20 0 -15 7 -20 25 -20 18 0 25 5 25 19 0 20 17 31 38 24 6
-3 12 -13 12 -24 0 -13 7 -19 24 -19 17 0 23 5 22 17 0 12 7 19 22 21 17 3 22
10 21 30 -1 17 -3 21 -6 10 -2 -10 -8 -18 -13 -18 -5 0 -11 8 -13 18 -3 10 -5
6 -6 -10 -1 -23 -6 -28 -26 -28 -20 0 -25 5 -26 28 -1 16 -3 20 -6 10 -2 -10
-11 -18 -18 -18 -7 0 -16 8 -18 18 -3 10 -5 6 -6 -10 -1 -23 -6 -28 -25 -28
-19 0 -26 6 -29 28 -2 15 -5 19 -6 10z"/>
<path d="M2891 2978 c-1 -22 4 -28 19 -28 15 0 20 6 19 28 -1 16 -3 20 -6 10
-2 -10 -8 -18 -13 -18 -5 0 -11 8 -13 18 -3 10 -5 6 -6 -10z"/>
<path d="M100 2930 c0 -13 7 -20 20 -20 13 0 20 7 20 20 0 13 -7 20 -20 20
-13 0 -20 -7 -20 -20z"/>
<path d="M200 2926 c0 -19 4 -23 20 -19 11 3 20 14 20 24 0 12 -7 19 -20 19
-14 0 -20 -7 -20 -24z"/>
<path d="M300 2930 c0 -13 7 -20 20 -20 13 0 20 7 20 20 0 13 -7 20 -20 20
-13 0 -20 -7 -20 -20z"/>
<path d="M590 2930 c0 -13 7 -20 20 -20 13 0 20 7 20 20 0 13 -7 20 -20 20
-13 0 -20 -7 -20 -20z"/>
<path d="M690 2930 c0 -13 7 -20 20 -20 13 0 20 7 20 20 0 13 -7 20 -20 20
-13 0 -20 -7 -20 -20z"/>
<path d="M790 2930 c0 -13 7 -20 20 -20 13 0 20 7 20 20 0 13 -7 20 -20 20
-13 0 -20 -7 -20 -20z"/>
<path d="M980 2930 c0 -13 7 -20 20 -20 13 0 20 7 20 20 0 13 -7 20 -20 20
-13 0 -20 -7 -20 -20z"/>
<path d="M1080 2924 c0 -33 33 -30 38 4 3 17 -2 22 -17 22 -16 0 -21 -6 -21
-26z"/>
<path d="M1860 2931 c0 -10 9 -21 19 -24 25 -6 30 -1 24 24 -7 25 -43 25 -43
0z"/>
<path d="M1960 2925 c0 -19 -5 -25 -22 -26 -13 0 -17 -3 -10 -6 6 -2 26 1 42
9 34 15 41 48 10 48 -15 0 -20 -7 -20 -25z"/>
<path d="M2060 2930 c0 -13 7 -20 20 -20 13 0 20 7 20 20 0 13 -7 20 -20 20
-13 0 -20 -7 -20 -20z"/>
<path d="M2350 2930 c0 -13 7 -20 20 -20 13 0 20 7 20 20 0 13 -7 20 -20 20
-13 0 -20 -7 -20 -20z"/>
<path d="M2450 2930 c0 -13 7 -20 20 -20 13 0 20 7 20 20 0 13 -7 20 -20 20
-13 0 -20 -7 -20 -20z"/>
<path d="M2550 2930 c0 -13 7 -20 20 -20 13 0 20 7 20 20 0 13 -7 20 -20 20
-13 0 -20 -7 -20 -20z"/>
<path d="M2840 2930 c0 -13 7 -20 20 -20 13 0 20 7 20 20 0 13 -7 20 -20 20
-13 0 -20 -7 -20 -20z"/>
<path d="M2940 2930 c0 -13 7 -20 20 -20 13 0 20 7 20 20 0 13 -7 20 -20 20
-13 0 -20 -7 -20 -20z"/>
<path d="M50 2880 c0 -13 7 -20 20 -20 13 0 20 7 20 20 0 13 -7 20 -20 20 -13
0 -20 -7 -20 -20z"/>
<path d="M150 2880 c0 -13 7 -20 20 -20 13 0 20 7 20 20 0 13 -7 20 -20 20
-13 0 -20 -7 -20 -20z"/>
<path d="M250 2880 c0 -13 7 -20 20 -20 13 0 20 7 20 20 0 13 -7 20 -20 20
-13 0 -20 -7 -20 -20z"/>
<path d="M350 2880 c0 -13 7 -20 20 -20 13 0 20 7 20 20 0 13 -7 20 -20 20
-13 0 -20 -7 -20 -20z"/>
<path d="M440 2880 c0 -15 7 -20 25 -20 18 0 25 5 25 20 0 15 -7 20 -25 20
-18 0 -25 -5 -25 -20z"/>
<path d="M540 2880 c0 -13 7 -20 20 -20 13 0 20 7 20 20 0 13 -7 20 -20 20
-13 0 -20 -7 -20 -20z"/>
<path d="M640 2880 c0 -13 7 -20 20 -20 13 0 20 7 20 20 0 13 -7 20 -20 20
-13 0 -20 -7 -20 -20z"/>
<path d="M740 2880 c0 -13 7 -20 20 -20 13 0 20 7 20 20 0 13 -7 20 -20 20
-13 0 -20 -7 -20 -20z"/>
<path d="M830 2880 c0 -15 7 -20 25 -20 18 0 25 5 25 20 0 15 -7 20 -25 20
-18 0 -25 -5 -25 -20z"/>
<path d="M930 2880 c0 -15 7 -20 24 -20 19 0 24 5 23 20 -1 14 -8 20 -24 20
-16 0 -23 -6 -23 -20z"/>
<path d="M2012 2883 c5 -26 38 -29 38 -4 0 15 -6 21 -21 21 -14 0 -19 -5 -17
-17z"/>
<path d="M2110 2880 c0 -13 7 -20 20 -20 13 0 20 7 20 20 0 13 -7 20 -20 20
-13 0 -20 -7 -20 -20z"/>
<path d="M2200 2880 c0 -15 7 -20 25 -20 18 0 25 5 25 20 0 15 -7 20 -25 20
-18 0 -25 -5 -25 -20z"/>
<path d="M2300 2880 c0 -13 7 -20 20 -20 13 0 20 7 20 20 0 13 -7 20 -20 20
-13 0 -20 -7 -20 -20z"/>
<path d="M2400 2880 c0 -13 7 -20 20 -20 13 0 20 7 20 20 0 13 -7 20 -20 20
-13 0 -20 -7 -20 -20z"/>
<path d="M2500 2880 c0 -13 7 -20 20 -20 13 0 20 7 20 20 0 13 -7 20 -20 20
-13 0 -20 -7 -20 -20z"/>
<path d="M2600 2880 c0 -13 7 -20 20 -20 13 0 20 7 20 20 0 13 -7 20 -20 20
-13 0 -20 -7 -20 -20z"/>
<path d="M2690 2880 c0 -15 7 -20 25 -20 18 0 25 5 25 20 0 15 -7 20 -25 20
-18 0 -25 -5 -25 -20z"/>
<path d="M2790 2880 c0 -13 7 -20 20 -20 13 0 20 7 20 20 0 13 -7 20 -20 20
-13 0 -20 -7 -20 -20z"/>
<path d="M2890 2880 c0 -13 7 -20 20 -20 13 0 20 7 20 20 0 13 -7 20 -20 20
-13 0 -20 -7 -20 -20z"/>
<path d="M100 2830 c0 -13 7 -20 20 -20 13 0 20 7 20 20 0 13 -7 20 -20 20
-13 0 -20 -7 -20 -20z"/>
<path d="M200 2830 c0 -13 7 -20 20 -20 13 0 20 7 20 20 0 13 -7 20 -20 20
-13 0 -20 -7 -20 -20z"/>
<path d="M300 2830 c0 -13 7 -20 20 -20 13 0 20 7 20 20 0 13 -7 20 -20 20
-13 0 -20 -7 -20 -20z"/>
<path d="M390 2830 c0 -15 7 -20 25 -20 18 0 25 5 25 20 0 15 -7 20 -25 20
-18 0 -25 -5 -25 -20z"/>
<path d="M490 2830 c0 -14 7 -20 23 -20 16 0 23 6 23 20 0 14 -7 20 -23 20
-16 0 -23 -6 -23 -20z"/>
<path d="M590 2830 c0 -13 7 -20 20 -20 13 0 20 7 20 20 0 13 -7 20 -20 20
-13 0 -20 -7 -20 -20z"/>
<path d="M690 2830 c0 -13 7 -20 20 -20 13 0 20 7 20 20 0 13 -7 20 -20 20
-13 0 -20 -7 -20 -20z"/>
<path d="M790 2830 c0 -13 7 -20 20 -20 13 0 20 7 20 20 0 13 -7 20 -20 20
-13 0 -20 -7 -20 -20z"/>
<path d="M2157 2830 c-4 -16 0 -20 19 -20 17 0 24 6 24 20 0 13 -7 20 -19 20
-10 0 -21 -9 -24 -20z"/>
<path d="M2250 2830 c0 -15 7 -20 25 -20 18 0 25 5 25 20 0 15 -7 20 -25 20
-18 0 -25 -5 -25 -20z"/>
<path d="M2350 2830 c0 -13 7 -20 20 -20 13 0 20 7 20 20 0 13 -7 20 -20 20
-13 0 -20 -7 -20 -20z"/>
<path d="M2450 2830 c0 -13 7 -20 20 -20 13 0 20 7 20 20 0 13 -7 20 -20 20
-13 0 -20 -7 -20 -20z"/>
<path d="M2550 2830 c0 -13 7 -20 20 -20 13 0 20 7 20 20 0 13 -7 20 -20 20
-13 0 -20 -7 -20 -20z"/>
<path d="M2640 2830 c0 -15 7 -20 25 -20 18 0 25 5 25 20 0 15 -7 20 -25 20
-18 0 -25 -5 -25 -20z"/>
<path d="M2740 2830 c0 -13 7 -20 19 -20 10 0 21 9 24 20 4 16 0 20 -19 20
-17 0 -24 -6 -24 -20z"/>
<path d="M2840 2830 c0 -13 7 -20 20 -20 13 0 20 7 20 20 0 13 -7 20 -20 20
-13 0 -20 -7 -20 -20z"/>
<path d="M2940 2830 c0 -13 7 -20 20 -20 13 0 20 7 20 20 0 13 -7 20 -20 20
-13 0 -20 -7 -20 -20z"/>
<path d="M50 2780 c0 -13 7 -20 20 -20 13 0 20 7 20 20 0 13 -7 20 -20 20 -13
0 -20 -7 -20 -20z"/>
<path d="M150 2780 c0 -13 7 -20 20 -20 13 0 20 7 20 20 0 13 -7 20 -20 20
-13 0 -20 -7 -20 -20z"/>
<path d="M250 2780 c0 -13 7 -20 20 -20 13 0 20 7 20 20 0 13 -7 20 -20 20
-13 0 -20 -7 -20 -20z"/>
<path d="M350 2780 c0 -13 7 -20 20 -20 13 0 20 7 20 20 0 13 -7 20 -20 20
-13 0 -20 -7 -20 -20z"/>
<path d="M440 2780 c0 -15 7 -20 25 -20 18 0 25 5 25 20 0 15 -7 20 -25 20
-18 0 -25 -5 -25 -20z"/>
<path d="M540 2780 c0 -13 7 -20 20 -20 13 0 20 7 20 20 0 13 -7 20 -20 20
-13 0 -20 -7 -20 -20z"/>
<path d="M640 2780 c0 -13 7 -20 20 -20 13 0 20 7 20 20 0 13 -7 20 -20 20
-13 0 -20 -7 -20 -20z"/>
<path d="M740 2779 c0 -25 33 -22 38 4 2 12 -3 17 -17 17 -15 0 -21 -6 -21
-21z"/>
<path d="M2200 2790 c0 -9 31 -30 44 -30 3 0 6 9 6 20 0 15 -7 20 -25 20 -14
0 -25 -4 -25 -10z"/>
<path d="M2300 2780 c0 -13 7 -20 20 -20 13 0 20 7 20 20 0 13 -7 20 -20 20
-13 0 -20 -7 -20 -20z"/>
<path d="M2400 2780 c0 -13 7 -20 20 -20 13 0 20 7 20 20 0 13 -7 20 -20 20
-13 0 -20 -7 -20 -20z"/>
<path d="M2500 2780 c0 -13 7 -20 20 -20 13 0 20 7 20 20 0 13 -7 20 -20 20
-13 0 -20 -7 -20 -20z"/>
<path d="M2600 2780 c0 -13 7 -20 20 -20 13 0 20 7 20 20 0 13 -7 20 -20 20
-13 0 -20 -7 -20 -20z"/>
<path d="M2690 2780 c0 -15 7 -20 25 -20 18 0 25 5 25 20 0 15 -7 20 -25 20
-18 0 -25 -5 -25 -20z"/>
<path d="M2790 2780 c0 -13 7 -20 20 -20 13 0 20 7 20 20 0 13 -7 20 -20 20
-13 0 -20 -7 -20 -20z"/>
<path d="M2890 2780 c0 -13 7 -20 20 -20 13 0 20 7 20 20 0 13 -7 20 -20 20
-13 0 -20 -7 -20 -20z"/>
<path d="M26 2736 c3 -8 -2 -16 -13 -19 -12 -3 -9 -5 10 -6 21 -1 27 4 27 19
0 11 -7 20 -15 20 -8 0 -12 -6 -9 -14z"/>
<path d="M100 2730 c0 -13 7 -20 20 -20 13 0 20 7 20 20 0 13 -7 20 -20 20
-13 0 -20 -7 -20 -20z"/>
<path d="M200 2730 c0 -13 7 -20 20 -20 13 0 20 7 20 20 0 13 -7 20 -20 20
-13 0 -20 -7 -20 -20z"/>
<path d="M300 2730 c0 -13 7 -20 20 -20 13 0 20 7 20 20 0 13 -7 20 -20 20
-13 0 -20 -7 -20 -20z"/>
<path d="M390 2730 c0 -15 7 -20 25 -20 18 0 25 5 25 20 0 15 -7 20 -25 20
-18 0 -25 -5 -25 -20z"/>
<path d="M490 2730 c0 -13 7 -20 20 -20 13 0 20 7 20 20 0 13 -7 20 -20 20
-13 0 -20 -7 -20 -20z"/>
<path d="M590 2730 c0 -13 7 -20 20 -20 13 0 20 7 20 20 0 13 -7 20 -20 20
-13 0 -20 -7 -20 -20z"/>
<path d="M2350 2730 c0 -13 7 -20 20 -20 13 0 20 7 20 20 0 13 -7 20 -20 20
-13 0 -20 -7 -20 -20z"/>
<path d="M2450 2730 c0 -13 7 -20 20 -20 13 0 20 7 20 20 0 13 -7 20 -20 20
-13 0 -20 -7 -20 -20z"/>
<path d="M2550 2730 c0 -13 7 -20 20 -20 13 0 20 7 20 20 0 13 -7 20 -20 20
-13 0 -20 -7 -20 -20z"/>
<path d="M2640 2730 c0 -15 7 -20 25 -20 18 0 25 5 25 20 0 15 -7 20 -25 20
-18 0 -25 -5 -25 -20z"/>
<path d="M2740 2731 c0 -16 6 -21 24 -21 31 0 29 34 -2 38 -17 3 -22 -2 -22
-17z"/>
<path d="M2840 2730 c0 -13 7 -20 20 -20 13 0 20 7 20 20 0 13 -7 20 -20 20
-13 0 -20 -7 -20 -20z"/>
<path d="M2940 2730 c0 -13 7 -20 20 -20 13 0 20 7 20 20 0 13 -7 20 -20 20
-13 0 -20 -7 -20 -20z"/>
<path d="M50 2680 c0 -13 7 -20 20 -20 13 0 20 7 20 20 0 13 -7 20 -20 20 -13
0 -20 -7 -20 -20z"/>
<path d="M150 2680 c0 -13 7 -20 20 -20 13 0 20 7 20 20 0 13 -7 20 -20 20
-13 0 -20 -7 -20 -20z"/>
<path d="M250 2680 c0 -13 7 -20 20 -20 13 0 20 7 20 20 0 13 -7 20 -20 20
-13 0 -20 -7 -20 -20z"/>
<path d="M350 2680 c0 -13 7 -20 20 -20 13 0 20 7 20 20 0 13 -7 20 -20 20
-13 0 -20 -7 -20 -20z"/>
<path d="M440 2680 c0 -15 7 -20 25 -20 18 0 25 5 25 20 0 15 -7 20 -25 20
-18 0 -25 -5 -25 -20z"/>
<path d="M540 2680 c0 -15 7 -20 25 -20 14 0 25 -5 25 -11 0 -5 5 -7 11 -3 8
5 6 10 -5 16 -9 5 -16 16 -16 23 0 8 -9 15 -20 15 -13 0 -20 -7 -20 -20z"/>
<path d="M2398 2677 c-4 -20 -1 -23 19 -19 29 5 32 42 4 42 -12 0 -20 -9 -23
-23z"/>
<path d="M2500 2680 c0 -13 7 -20 20 -20 13 0 20 7 20 20 0 13 -7 20 -20 20
-13 0 -20 -7 -20 -20z"/>
<path d="M2600 2680 c0 -13 7 -20 20 -20 13 0 20 7 20 20 0 13 -7 20 -20 20
-13 0 -20 -7 -20 -20z"/>
<path d="M2690 2680 c0 -15 7 -20 25 -20 18 0 25 5 25 20 0 15 -7 20 -25 20
-18 0 -25 -5 -25 -20z"/>
<path d="M2790 2680 c0 -13 7 -20 20 -20 13 0 20 7 20 20 0 13 -7 20 -20 20
-13 0 -20 -7 -20 -20z"/>
<path d="M2890 2680 c0 -13 7 -20 20 -20 13 0 20 7 20 20 0 13 -7 20 -20 20
-13 0 -20 -7 -20 -20z"/>
<path d="M33 2636 c4 -10 -2 -16 -16 -19 -18 -4 -17 -5 6 -6 22 -1 27 -6 27
-26 0 -20 -5 -25 -27 -26 -25 -2 -25 -2 -5 -6 18 -4 21 -9 16 -25 -4 -14 -2
-18 5 -14 6 4 11 16 11 27 0 12 7 19 20 19 14 0 20 7 20 24 0 17 -5 23 -17 22
-12 0 -19 7 -21 22 -2 12 -8 22 -14 22 -5 0 -8 -6 -5 -14z"/>
<path d="M100 2630 c0 -13 7 -20 20 -20 13 0 20 7 20 20 0 13 -7 20 -20 20
-13 0 -20 -7 -20 -20z"/>
<path d="M200 2630 c0 -13 7 -20 20 -20 13 0 20 7 20 20 0 13 -7 20 -20 20
-13 0 -20 -7 -20 -20z"/>
<path d="M300 2630 c0 -13 7 -20 20 -20 13 0 20 7 20 20 0 13 -7 20 -20 20
-13 0 -20 -7 -20 -20z"/>
<path d="M390 2630 c0 -13 -7 -20 -20 -20 -15 0 -20 -7 -20 -25 0 -18 5 -25
19 -25 10 0 21 -9 24 -19 6 -24 0 -31 -25 -31 -26 0 -23 -35 5 -47 22 -10 23
-9 19 19 -4 29 -3 30 25 26 27 -4 29 -2 25 25 -4 28 -3 29 25 25 27 -4 29 -2
25 25 -4 28 -3 29 25 25 26 -4 29 -2 25 19 -6 30 -52 33 -52 4 0 -20 -17 -31
-37 -24 -7 3 -13 13 -13 24 0 14 -7 19 -25 19 -18 0 -25 -5 -25 -20z m50 -45
c0 -20 -5 -25 -25 -25 -20 0 -25 5 -25 25 0 20 5 25 25 25 20 0 25 -5 25 -25z"/>
<path d="M2450 2630 c0 -13 7 -20 20 -20 13 0 20 7 20 20 0 13 -7 20 -20 20
-13 0 -20 -7 -20 -20z"/>
<path d="M2550 2630 c0 -13 7 -20 20 -20 13 0 20 7 20 20 0 13 -7 20 -20 20
-13 0 -20 -7 -20 -20z"/>
<path d="M2640 2630 c0 -13 -7 -20 -20 -20 -15 0 -20 -7 -20 -25 0 -18 5 -25
19 -25 10 0 25 -8 32 -17 10 -11 10 -14 2 -9 -8 4 -13 1 -13 -8 0 -9 -8 -16
-19 -16 -17 0 -31 -18 -31 -41 0 -6 10 -9 23 -7 17 2 23 -2 25 -23 3 -22 7
-25 28 -21 34 6 33 42 -1 42 -20 0 -25 5 -25 25 0 20 5 25 25 25 18 0 25 -5
25 -20 0 -15 7 -20 25 -20 18 0 25 5 25 20 0 13 7 20 20 20 15 0 20 7 20 25 0
18 -5 25 -19 25 -13 0 -21 8 -23 23 -2 12 -9 23 -15 23 -7 1 -17 2 -23 3 -5 0
-10 10 -10 21 0 15 -7 20 -25 20 -18 0 -25 -5 -25 -20z m50 -45 c0 -20 -5 -25
-25 -25 -20 0 -25 5 -25 25 0 20 5 25 25 25 20 0 25 -5 25 -25z m50 -50 c0
-20 -5 -25 -25 -25 -20 0 -25 5 -25 25 0 20 5 25 25 25 20 0 25 -5 25 -25z"/>
<path d="M2740 2630 c0 -15 7 -20 25 -20 20 0 25 -5 25 -25 0 -18 5 -25 20
-25 15 0 20 7 20 25 0 19 -5 25 -21 25 -12 0 -23 8 -26 20 -3 11 -14 20 -24
20 -12 0 -19 -7 -19 -20z"/>
<path d="M2840 2630 c0 -13 7 -20 20 -20 13 0 20 7 20 20 0 13 -7 20 -20 20
-13 0 -20 -7 -20 -20z"/>
<path d="M2940 2630 c0 -13 7 -20 20 -20 13 0 20 7 20 20 0 13 -7 20 -20 20
-13 0 -20 -7 -20 -20z"/>
<path d="M150 2585 c0 -18 5 -25 20 -25 15 0 20 7 20 25 0 18 -5 25 -20 25
-15 0 -20 -7 -20 -25z"/>
<path d="M250 2585 c0 -18 5 -25 20 -25 15 0 20 7 20 25 0 18 -5 25 -20 25
-15 0 -20 -7 -20 -25z"/>
<path d="M2500 2585 c0 -18 5 -25 20 -25 15 0 20 7 20 25 0 18 -5 25 -20 25
-15 0 -20 -7 -20 -25z"/>
<path d="M2890 2585 c0 -18 5 -25 20 -25 15 0 20 7 20 25 0 18 -5 25 -20 25
-15 0 -20 -7 -20 -25z"/>
<path d="M1398 2579 c-485 -42 -881 -409 -969 -899 -18 -104 -14 -300 10 -408
77 -352 332 -652 666 -781 152 -60 243 -75 425 -75 135 1 168 4 255 28 187 49
343 144 488 296 157 164 259 363 298 580 17 101 13 300 -10 406 -113 536 -611
901 -1163 853z m287 -41 c73 -11 221 -60 296 -98 252 -129 448 -368 535 -655
24 -80 28 -108 30 -255 2 -193 -2 -251 -21 -244 -9 4 -11 -2 -8 -20 11 -55
-74 -251 -160 -374 -176 -248 -427 -405 -701 -439 -147 -19 -401 8 -487 51
-17 9 -35 13 -40 10 -11 -6 -152 67 -233 121 -129 86 -273 257 -346 411 -83
176 -113 342 -98 549 18 239 124 468 301 647 118 120 251 202 417 258 170 57
322 68 515 38z"/>
<path d="M1995 2094 c-26 -13 -119 -93 -223 -191 -29 -28 -39 -31 -78 -28 -66
5 -77 11 -99 52 -26 50 -56 53 -117 13 -62 -41 -98 -38 -110 7 -18 68 -73 75
-140 18 -27 -23 -34 -24 -96 -18 -125 15 -168 11 -197 -17 -43 -40 -59 -77
-45 -109 14 -35 31 -44 137 -80 166 -55 307 -114 336 -139 9 -8 17 -21 17 -29
0 -17 -118 -204 -139 -220 -11 -8 -52 -12 -128 -10 -99 2 -114 0 -140 -19 -15
-12 -32 -32 -37 -46 -17 -49 -1 -73 99 -143 65 -46 95 -74 95 -87 0 -27 66
-88 106 -100 67 -18 141 43 128 107 -2 11 -5 45 -6 75 -2 69 19 110 75 151 23
16 57 42 76 57 48 39 59 44 79 38 22 -7 33 -26 72 -122 32 -81 40 -104 80
-232 26 -84 62 -120 128 -129 31 -4 44 0 66 19 36 31 43 71 32 178 -9 87 -8
88 21 131 17 24 32 51 35 59 8 23 -24 70 -52 76 -49 11 -51 13 -44 41 3 16 17
44 29 63 45 69 45 71 -37 144 -49 44 -30 140 37 192 18 13 59 60 91 104 48 65
61 77 73 67 12 -10 13 -9 3 10 -7 12 -12 37 -12 57 0 25 -7 40 -26 55 -32 25
-49 26 -89 5z m76 -24 c10 -6 19 -21 19 -34 0 -26 -99 -163 -160 -221 -68 -65
-81 -110 -64 -217 6 -34 10 -37 42 -40 53 -5 61 -27 25 -74 -33 -43 -61 -130
-47 -144 5 -5 29 -10 53 -12 66 -5 74 -26 27 -78 l-38 -42 7 -127 c6 -112 5
-130 -10 -144 -21 -21 -48 -21 -90 -1 -34 16 -55 53 -76 134 -17 69 -109 303
-126 323 -27 30 -87 22 -130 -16 -21 -19 -63 -52 -95 -75 -76 -56 -96 -104
-81 -200 15 -94 4 -116 -59 -120 -47 -3 -48 -2 -80 45 -44 64 -80 98 -159 149
-75 49 -86 67 -64 100 24 36 85 50 156 35 98 -20 165 13 203 99 6 14 28 50 48
80 50 74 55 100 26 127 -28 26 -155 80 -338 143 -74 26 -139 55 -145 64 -13
20 8 60 46 88 25 19 33 19 139 8 l112 -12 38 37 c32 31 43 36 65 31 25 -6 27
-10 21 -46 -6 -37 -5 -39 30 -50 46 -16 78 -6 128 36 51 44 70 41 74 -12 l3
-40 58 -12 c108 -23 111 -22 219 79 108 102 168 149 189 149 8 0 23 -5 34 -10z"/>
<path d="M100 2535 c0 -18 5 -25 20 -25 15 0 20 7 20 25 0 18 -5 25 -20 25
-15 0 -20 -7 -20 -25z"/>
<path d="M200 2535 c0 -18 5 -25 20 -25 15 0 20 7 20 25 0 18 -5 25 -20 25
-15 0 -20 -7 -20 -25z"/>
<path d="M300 2535 c0 -18 5 -25 20 -25 15 0 20 7 20 25 0 18 -5 25 -20 25
-15 0 -20 -7 -20 -25z"/>
<path d="M2550 2535 c0 -18 5 -25 20 -25 15 0 20 7 20 25 0 18 -5 25 -20 25
-15 0 -20 -7 -20 -25z"/>
<path d="M2840 2535 c0 -18 5 -25 20 -25 15 0 20 7 20 25 0 18 -5 25 -20 25
-15 0 -20 -7 -20 -25z"/>
<path d="M2940 2535 c0 -18 5 -25 20 -25 15 0 20 7 20 25 0 18 -5 25 -20 25
-15 0 -20 -7 -20 -25z"/>
<path d="M50 2490 c0 -13 7 -20 20 -20 13 0 20 7 20 20 0 13 -7 20 -20 20 -13
0 -20 -7 -20 -20z"/>
<path d="M150 2486 c0 -19 4 -23 20 -19 11 3 20 14 20 24 0 12 -7 19 -20 19
-14 0 -20 -7 -20 -24z"/>
<path d="M250 2486 c0 -19 4 -23 20 -19 11 3 20 14 20 24 0 12 -7 19 -20 19
-14 0 -20 -7 -20 -24z"/>
<path d="M2790 2485 c0 -20 -5 -25 -25 -25 -18 0 -25 -5 -25 -20 0 -15 7 -20
26 -20 15 0 23 4 19 10 -9 15 15 42 32 36 9 -4 13 3 13 19 0 18 -5 25 -20 25
-15 0 -20 -7 -20 -25z"/>
<path d="M2890 2487 c0 -16 6 -23 20 -24 15 -1 20 4 20 23 0 17 -5 24 -20 24
-14 0 -20 -7 -20 -23z"/>
<path d="M100 2440 c0 -13 7 -20 20 -20 13 0 20 7 20 20 0 13 -7 20 -20 20
-13 0 -20 -7 -20 -20z"/>
<path d="M200 2440 c0 -13 7 -20 20 -20 13 0 20 7 20 20 0 13 -7 20 -20 20
-13 0 -20 -7 -20 -20z"/>
<path d="M300 2440 c0 -13 7 -20 20 -20 13 0 20 7 20 20 0 13 -7 20 -20 20
-13 0 -20 -7 -20 -20z"/>
<path d="M2840 2440 c0 -13 7 -20 20 -20 13 0 20 7 20 20 0 13 -7 20 -20 20
-13 0 -20 -7 -20 -20z"/>
<path d="M2940 2440 c0 -13 7 -20 20 -20 13 0 20 7 20 20 0 13 -7 20 -20 20
-13 0 -20 -7 -20 -20z"/>
<path d="M50 2390 c0 -13 7 -20 20 -20 13 0 20 7 20 20 0 13 -7 20 -20 20 -13
0 -20 -7 -20 -20z"/>
<path d="M150 2390 c0 -13 7 -20 20 -20 13 0 20 7 20 20 0 13 -7 20 -20 20
-13 0 -20 -7 -20 -20z"/>
<path d="M250 2390 c0 -13 7 -20 20 -20 13 0 20 7 20 20 0 13 -7 20 -20 20
-13 0 -20 -7 -20 -20z"/>
<path d="M2690 2390 c0 -15 7 -20 25 -20 18 0 25 5 25 20 0 15 -7 20 -25 20
-18 0 -25 -5 -25 -20z"/>
<path d="M2790 2390 c0 -13 7 -20 20 -20 13 0 20 7 20 20 0 13 -7 20 -20 20
-13 0 -20 -7 -20 -20z"/>
<path d="M2890 2390 c0 -13 7 -20 20 -20 13 0 20 7 20 20 0 13 -7 20 -20 20
-13 0 -20 -7 -20 -20z"/>
<path d="M20 2350 c13 -9 13 -11 0 -20 -12 -8 -11 -10 8 -10 15 0 22 6 22 20
0 14 -7 20 -22 20 -19 0 -20 -2 -8 -10z"/>
<path d="M100 2340 c0 -13 7 -20 20 -20 13 0 20 7 20 20 0 13 -7 20 -20 20
-13 0 -20 -7 -20 -20z"/>
<path d="M200 2340 c0 -13 7 -20 20 -20 13 0 20 7 20 20 0 13 -7 20 -20 20
-13 0 -20 -7 -20 -20z"/>
<path d="M2740 2340 c0 -13 7 -20 20 -20 13 0 20 7 20 20 0 13 -7 20 -20 20
-13 0 -20 -7 -20 -20z"/>
<path d="M2840 2340 c0 -13 7 -20 20 -20 13 0 20 7 20 20 0 13 -7 20 -20 20
-13 0 -20 -7 -20 -20z"/>
<path d="M2940 2340 c0 -13 7 -20 20 -20 13 0 20 7 20 20 0 13 -7 20 -20 20
-13 0 -20 -7 -20 -20z"/>
<path d="M50 2290 c0 -13 7 -20 20 -20 13 0 20 7 20 20 0 13 -7 20 -20 20 -13
0 -20 -7 -20 -20z"/>
<path d="M150 2290 c0 -13 7 -20 20 -20 13 0 20 7 20 20 0 13 -7 20 -20 20
-13 0 -20 -7 -20 -20z"/>
<path d="M2790 2290 c0 -13 7 -20 20 -20 13 0 20 7 20 20 0 13 -7 20 -20 20
-13 0 -20 -7 -20 -20z"/>
<path d="M2890 2290 c0 -13 7 -20 20 -20 13 0 20 7 20 20 0 13 -7 20 -20 20
-13 0 -20 -7 -20 -20z"/>
<path d="M100 2240 c0 -13 7 -20 20 -20 13 0 20 7 20 20 0 13 -7 20 -20 20
-13 0 -20 -7 -20 -20z"/>
<path d="M200 2239 c0 -25 33 -22 38 4 2 12 -3 17 -17 17 -15 0 -21 -6 -21
-21z"/>
<path d="M2750 2252 c0 -10 22 -32 32 -32 4 0 8 9 8 20 0 13 -7 20 -20 20 -11
0 -20 -4 -20 -8z"/>
<path d="M2840 2240 c0 -13 7 -20 20 -20 13 0 20 7 20 20 0 13 -7 20 -20 20
-13 0 -20 -7 -20 -20z"/>
<path d="M2940 2240 c0 -13 7 -20 20 -20 13 0 20 7 20 20 0 13 -7 20 -20 20
-13 0 -20 -7 -20 -20z"/>
<path d="M50 2190 c0 -13 7 -20 20 -20 13 0 20 7 20 20 0 13 -7 20 -20 20 -13
0 -20 -7 -20 -20z"/>
<path d="M150 2190 c0 -13 7 -20 20 -20 13 0 20 7 20 20 0 13 -7 20 -20 20
-13 0 -20 -7 -20 -20z"/>
<path d="M2790 2190 c0 -13 7 -20 20 -20 13 0 20 7 20 20 0 13 -7 20 -20 20
-13 0 -20 -7 -20 -20z"/>
<path d="M2890 2189 c0 -12 7 -19 20 -19 13 0 20 7 20 18 0 11 -8 18 -20 19
-14 1 -20 -4 -20 -18z"/>
<path d="M100 2145 c0 -18 5 -25 20 -25 15 0 20 7 20 25 0 18 -5 25 -20 25
-15 0 -20 -7 -20 -25z"/>
<path d="M2840 2145 c0 -13 -4 -25 -10 -27 -6 -2 -6 -8 0 -18 8 -13 10 -12 10
3 0 10 8 17 20 17 14 0 20 7 20 23 0 16 -6 23 -20 24 -15 1 -20 -4 -20 -22z"/>
<path d="M2940 2145 c0 -18 5 -25 20 -25 15 0 20 7 20 25 0 18 -5 25 -20 25
-15 0 -20 -7 -20 -25z"/>
<path d="M28 2153 c6 -2 12 -9 12 -14 0 -6 -4 -8 -8 -5 -4 2 -14 1 -22 -5 -11
-6 -8 -9 13 -9 22 0 27 -4 27 -25 0 -20 -5 -25 -27 -26 -25 -2 -26 -2 -5 -6
15 -3 22 -10 18 -19 -3 -8 -1 -14 4 -14 6 0 10 9 10 20 0 13 7 20 20 20 15 0
20 7 20 25 0 18 -5 25 -20 25 -13 0 -20 7 -20 20 0 13 -6 20 -17 19 -11 0 -13
-3 -5 -6z"/>
<path d="M2890 2095 c0 -18 5 -25 20 -25 15 0 20 7 20 25 0 18 -5 25 -20 25
-15 0 -20 -7 -20 -25z"/>
<path d="M102 2048 c5 -34 38 -37 38 -4 0 20 -5 26 -21 26 -15 0 -20 -5 -17
-22z"/>
<path d="M2852 2045 c6 -14 15 -25 20 -25 4 0 8 11 8 25 0 18 -5 25 -20 25
-17 0 -18 -3 -8 -25z"/>
<path d="M2940 2050 c0 -13 7 -20 20 -20 13 0 20 7 20 20 0 13 -7 20 -20 20
-13 0 -20 -7 -20 -20z"/>
<path d="M50 2000 c0 -13 7 -20 20 -20 13 0 20 7 20 20 0 13 -7 20 -20 20 -13
0 -20 -7 -20 -20z"/>
<path d="M2890 2000 c0 -13 7 -20 20 -20 13 0 20 7 20 20 0 13 -7 20 -20 20
-13 0 -20 -7 -20 -20z"/>
<path d="M2940 1950 c0 -13 7 -20 20 -20 13 0 20 7 20 20 0 13 -7 20 -20 20
-13 0 -20 -7 -20 -20z"/>
<path d="M50 1900 c0 -24 35 -28 44 -4 9 23 8 24 -19 24 -18 0 -25 -5 -25 -20z"/>
<path d="M2902 1903 c5 -25 28 -28 28 -4 0 12 -6 21 -16 21 -9 0 -14 -7 -12
-17z"/>
<path d="M19 1861 c7 -5 10 -14 7 -20 -4 -6 0 -11 8 -11 9 0 16 9 16 20 0 14
-7 20 -22 20 -17 0 -19 -3 -9 -9z"/>
<path d="M2940 1850 c0 -13 7 -20 20 -20 13 0 20 7 20 20 0 13 -7 20 -20 20
-13 0 -20 -7 -20 -20z"/>
<path d="M35 1760 c3 -6 -4 -14 -17 -19 -23 -10 -22 -10 5 -10 21 -1 27 -6 27
-23 0 -12 3 -19 6 -16 8 9 -7 78 -18 78 -5 0 -6 -5 -3 -10z"/>
<path d="M2940 1750 c0 -13 7 -20 20 -20 13 0 20 7 20 20 0 13 -7 20 -20 20
-13 0 -20 -7 -20 -20z"/>
<path d="M12 1673 c10 -2 18 -11 18 -18 0 -7 -8 -16 -17 -18 -11 -3 -7 -5 10
-6 22 -1 27 3 27 24 0 21 -5 25 -27 24 -17 -1 -21 -3 -11 -6z"/>
<path d="M2950 1655 c0 -16 6 -25 15 -25 9 0 15 9 15 25 0 16 -6 25 -15 25 -9
0 -15 -9 -15 -25z"/>
<path d="M20 1370 c13 -9 13 -11 0 -20 -12 -8 -11 -10 8 -10 15 0 22 6 22 20
0 14 -7 20 -22 20 -19 0 -20 -2 -8 -10z"/>
<path d="M2950 1360 c0 -11 7 -20 15 -20 8 0 15 9 15 20 0 11 -7 20 -15 20 -8
0 -15 -9 -15 -20z"/>
<path d="M30 1271 c0 -11 -8 -22 -17 -24 -11 -3 -7 -5 10 -6 22 -1 27 -6 27
-26 0 -20 -5 -25 -27 -26 -19 -1 -22 -3 -10 -6 11 -3 16 -11 13 -19 -3 -8 1
-14 9 -14 8 0 15 9 15 20 0 11 5 20 10 20 6 0 10 11 10 25 0 14 -4 25 -10 25
-5 0 -10 9 -10 19 0 11 -4 23 -10 26 -5 3 -10 -3 -10 -14z"/>
<path d="M2940 1265 c0 -18 5 -25 20 -25 15 0 20 7 20 25 0 18 -5 25 -20 25
-15 0 -20 -7 -20 -25z"/>
<path d="M2940 1165 c0 -18 5 -25 20 -25 15 0 20 7 20 25 0 18 -5 25 -20 25
-15 0 -20 -7 -20 -25z"/>
<path d="M50 1121 c0 -10 9 -21 19 -24 25 -6 30 -1 24 24 -7 25 -43 25 -43 0z"/>
<path d="M2910 1131 c0 -5 -3 -16 -6 -25 -4 -11 -1 -16 10 -16 10 0 16 9 16
25 0 14 -4 25 -10 25 -5 0 -10 -4 -10 -9z"/>
<path d="M2940 1070 c0 -13 7 -20 20 -20 13 0 20 7 20 20 0 13 -7 20 -20 20
-13 0 -20 -7 -20 -20z"/>
<path d="M101 1063 c-1 -18 -7 -23 -26 -23 -18 0 -25 -5 -25 -20 0 -31 33 -24
48 10 8 16 11 36 9 42 -3 7 -6 3 -6 -9z"/>
<path d="M2890 1020 c0 -13 7 -20 20 -20 13 0 20 7 20 20 0 13 -7 20 -20 20
-13 0 -20 -7 -20 -20z"/>
<path d="M100 970 c0 -13 7 -20 20 -20 13 0 20 7 20 20 0 13 -7 20 -20 20 -13
0 -20 -7 -20 -20z"/>
<path d="M2940 970 c0 -13 7 -20 20 -20 13 0 20 7 20 20 0 13 -7 20 -20 20
-13 0 -20 -7 -20 -20z"/>
<path d="M50 920 c0 -13 7 -20 20 -20 13 0 20 7 20 20 0 13 -7 20 -20 20 -13
0 -20 -7 -20 -20z"/>
<path d="M2890 920 c0 -13 7 -20 20 -20 13 0 20 7 20 20 0 13 -7 20 -20 20
-13 0 -20 -7 -20 -20z"/>
<path d="M100 870 c0 -13 7 -20 20 -20 13 0 20 7 20 20 0 13 -7 20 -20 20 -13
0 -20 -7 -20 -20z"/>
<path d="M2840 870 c0 -13 7 -20 20 -20 13 0 20 7 20 20 0 13 -7 20 -20 20
-13 0 -20 -7 -20 -20z"/>
<path d="M2940 868 c0 -11 7 -18 20 -18 13 0 20 7 20 19 0 14 -6 19 -20 18
-12 -1 -20 -8 -20 -19z"/>
<path d="M163 843 c-21 -8 -15 -43 7 -43 15 0 20 7 20 25 0 25 -4 28 -27 18z"/>
<path d="M2795 828 c-4 -13 -16 -35 -27 -50 -19 -28 -19 -28 1 -28 16 0 21 -6
21 -25 0 -20 -5 -25 -25 -25 -17 0 -25 6 -25 18 0 14 -2 15 -10 2 -6 -10 -6
-16 0 -18 6 -2 10 -12 10 -23 0 -26 36 -25 43 1 3 12 14 20 26 20 16 0 21 6
21 25 0 18 -5 25 -20 25 -15 0 -20 7 -20 25 0 19 5 25 21 25 15 0 20 5 17 22
-4 30 -25 34 -33 6z"/>
<path d="M50 820 c0 -13 7 -20 20 -20 11 0 20 5 20 11 0 6 -8 8 -17 5 -15 -5
-15 -4 1 9 19 15 19 15 -2 15 -15 0 -22 -6 -22 -20z"/>
<path d="M2890 818 c0 -11 7 -18 20 -18 13 0 20 7 20 19 0 14 -6 19 -20 18
-12 -1 -20 -8 -20 -19z"/>
<path d="M33 786 c5 -12 0 -19 -16 -26 -21 -8 -21 -9 6 -9 22 -1 27 -6 27 -26
0 -19 -5 -25 -22 -25 -21 -1 -21 -2 -5 -11 9 -6 15 -14 12 -20 -4 -5 -1 -9 4
-9 6 0 11 9 11 20 0 13 7 20 20 20 15 0 20 7 20 25 0 18 -5 25 -20 25 -13 0
-20 7 -20 19 0 11 -5 23 -12 27 -8 5 -9 2 -5 -10z"/>
<path d="M100 775 c0 -18 5 -25 20 -25 15 0 20 7 20 25 0 18 -5 25 -20 25 -15
0 -20 -7 -20 -25z"/>
<path d="M200 775 c0 -18 5 -25 20 -25 23 0 24 4 10 31 -15 27 -30 24 -30 -6z"/>
<path d="M2840 775 c0 -18 5 -25 20 -25 15 0 20 7 20 25 0 18 -5 25 -20 25
-15 0 -20 -7 -20 -25z"/>
<path d="M2940 775 c0 -18 5 -25 20 -25 15 0 20 7 20 25 0 18 -5 25 -20 25
-15 0 -20 -7 -20 -25z"/>
<path d="M150 726 c0 -19 5 -24 20 -23 14 1 20 8 20 24 0 16 -6 23 -20 23 -15
0 -20 -7 -20 -24z"/>
<path d="M2890 725 c0 -18 5 -25 20 -25 15 0 20 7 20 25 0 18 -5 25 -20 25
-15 0 -20 -7 -20 -25z"/>
<path d="M100 680 c0 -13 7 -20 20 -20 13 0 20 7 20 20 0 13 -7 20 -20 20 -13
0 -20 -7 -20 -20z"/>
<path d="M200 680 c0 -13 7 -20 20 -20 13 0 20 7 20 20 0 13 -7 20 -20 20 -13
0 -20 -7 -20 -20z"/>
<path d="M2840 680 c0 -13 7 -20 20 -20 13 0 20 7 20 20 0 13 -7 20 -20 20
-13 0 -20 -7 -20 -20z"/>
<path d="M2940 680 c0 -13 7 -20 20 -20 13 0 20 7 20 20 0 13 -7 20 -20 20
-13 0 -20 -7 -20 -20z"/>
<path d="M50 630 c0 -13 7 -20 19 -20 10 0 21 9 24 20 4 16 0 20 -19 20 -17 0
-24 -6 -24 -20z"/>
<path d="M150 630 c0 -13 7 -20 20 -20 13 0 20 7 20 20 0 13 -7 20 -20 20 -13
0 -20 -7 -20 -20z"/>
<path d="M250 630 c0 -13 7 -20 20 -20 13 0 20 7 20 20 0 13 -7 20 -20 20 -13
0 -20 -7 -20 -20z"/>
<path d="M2690 630 c0 -15 7 -20 25 -20 18 0 25 5 25 20 0 15 -7 20 -25 20
-18 0 -25 -5 -25 -20z"/>
<path d="M2790 630 c0 -13 7 -20 20 -20 13 0 20 7 20 20 0 13 -7 20 -20 20
-13 0 -20 -7 -20 -20z"/>
<path d="M2890 630 c0 -13 7 -20 20 -20 13 0 20 7 20 20 0 13 -7 20 -20 20
-13 0 -20 -7 -20 -20z"/>
<path d="M100 580 c0 -13 7 -20 20 -20 13 0 20 7 20 20 0 13 -7 20 -20 20 -13
0 -20 -7 -20 -20z"/>
<path d="M200 580 c0 -13 7 -20 20 -20 13 0 20 7 20 20 0 13 -7 20 -20 20 -13
0 -20 -7 -20 -20z"/>
<path d="M300 580 c0 -13 7 -20 20 -20 13 0 20 7 20 20 0 13 -7 20 -20 20 -13
0 -20 -7 -20 -20z"/>
<path d="M2640 580 c0 -15 7 -20 25 -20 18 0 25 5 25 20 0 15 -7 20 -25 20
-18 0 -25 -5 -25 -20z"/>
<path d="M2740 580 c0 -14 7 -20 23 -20 16 0 23 6 23 20 0 14 -7 20 -23 20
-16 0 -23 -6 -23 -20z"/>
<path d="M2840 580 c0 -13 7 -20 20 -20 13 0 20 7 20 20 0 13 -7 20 -20 20
-13 0 -20 -7 -20 -20z"/>
<path d="M2940 580 c0 -13 7 -20 20 -20 13 0 20 7 20 20 0 13 -7 20 -20 20
-13 0 -20 -7 -20 -20z"/>
<path d="M50 530 c0 -14 7 -20 22 -20 21 0 21 0 2 15 -16 13 -16 14 -1 9 9 -3
17 -1 17 5 0 6 -9 11 -20 11 -13 0 -20 -7 -20 -20z"/>
<path d="M150 530 c0 -13 7 -20 20 -20 13 0 20 7 20 20 0 13 -7 20 -20 20 -13
0 -20 -7 -20 -20z"/>
<path d="M250 530 c0 -13 7 -20 20 -20 13 0 20 7 20 20 0 13 -7 20 -20 20 -13
0 -20 -7 -20 -20z"/>
<path d="M350 530 c0 -13 7 -20 20 -20 13 0 20 7 20 20 0 13 -7 20 -20 20 -13
0 -20 -7 -20 -20z"/>
<path d="M2596 534 c-9 -23 -8 -24 19 -24 18 0 25 5 25 20 0 24 -35 28 -44 4z"/>
<path d="M2690 530 c0 -15 7 -20 25 -20 18 0 25 5 25 20 0 15 -7 20 -25 20
-18 0 -25 -5 -25 -20z"/>
<path d="M2790 530 c0 -13 7 -20 20 -20 13 0 20 7 20 20 0 13 -7 20 -20 20
-13 0 -20 -7 -20 -20z"/>
<path d="M2890 530 c0 -13 7 -20 20 -20 13 0 20 7 20 20 0 13 -7 20 -20 20
-13 0 -20 -7 -20 -20z"/>
<path d="M100 480 c0 -13 7 -20 20 -20 13 0 20 7 20 20 0 13 -7 20 -20 20 -13
0 -20 -7 -20 -20z"/>
<path d="M200 480 c0 -13 7 -20 20 -20 13 0 20 7 20 20 0 13 -7 20 -20 20 -13
0 -20 -7 -20 -20z"/>
<path d="M300 480 c0 -13 7 -20 20 -20 13 0 20 7 20 20 0 13 -7 20 -20 20 -13
0 -20 -7 -20 -20z"/>
<path d="M390 480 c0 -15 7 -20 25 -20 18 0 25 5 25 20 0 15 -7 20 -25 20 -18
0 -25 -5 -25 -20z"/>
<path d="M2557 493 c-14 -13 -6 -33 13 -33 13 0 20 7 20 20 0 19 -20 27 -33
13z"/>
<path d="M2640 480 c0 -15 7 -20 25 -20 18 0 25 5 25 20 0 15 -7 20 -25 20
-18 0 -25 -5 -25 -20z"/>
<path d="M2740 480 c0 -14 7 -20 24 -20 19 0 23 4 19 20 -3 11 -14 20 -24 20
-12 0 -19 -7 -19 -20z"/>
<path d="M2840 480 c0 -13 7 -20 20 -20 13 0 20 7 20 20 0 13 -7 20 -20 20
-13 0 -20 -7 -20 -20z"/>
<path d="M2940 480 c0 -13 7 -20 20 -20 13 0 20 7 20 20 0 13 -7 20 -20 20
-13 0 -20 -7 -20 -20z"/>
<path d="M50 430 c0 -13 7 -20 20 -20 13 0 20 7 20 20 0 13 -7 20 -20 20 -13
0 -20 -7 -20 -20z"/>
<path d="M150 430 c0 -13 7 -20 20 -20 13 0 20 7 20 20 0 13 -7 20 -20 20 -13
0 -20 -7 -20 -20z"/>
<path d="M250 430 c0 -13 7 -20 20 -20 13 0 20 7 20 20 0 13 -7 20 -20 20 -13
0 -20 -7 -20 -20z"/>
<path d="M350 430 c0 -13 7 -20 20 -20 13 0 20 7 20 20 0 13 -7 20 -20 20 -13
0 -20 -7 -20 -20z"/>
<path d="M440 430 c0 -15 7 -20 25 -20 20 0 25 -5 25 -24 0 -25 -15 -36 -37
-29 -7 3 -13 13 -13 24 0 14 -7 19 -25 19 -18 0 -25 -5 -25 -20 0 -13 -7 -20
-20 -20 -15 0 -20 -7 -20 -25 0 -18 5 -25 20 -25 15 0 20 -7 20 -25 0 -18 -5
-25 -20 -25 -13 0 -20 -7 -20 -19 0 -10 9 -21 20 -24 12 -3 20 -14 20 -26 0
-16 6 -21 25 -21 18 0 25 5 25 20 0 15 -7 20 -25 20 -20 0 -25 5 -25 25 0 20
5 25 25 25 18 0 25 -5 25 -20 0 -15 7 -20 25 -20 18 0 25 5 25 19 0 13 8 21
23 23 14 2 22 10 22 23 0 13 8 21 23 23 12 2 22 7 22 12 0 5 3 15 6 24 5 12 0
16 -20 16 -14 0 -27 5 -27 10 -1 6 -2 16 -3 22 0 7 -10 13 -21 13 -13 0 -21 8
-23 23 -5 30 -52 32 -52 2z m0 -95 c0 -20 -5 -25 -25 -25 -20 0 -25 5 -25 25
0 20 5 25 25 25 20 0 25 -5 25 -25z m100 0 c0 -20 -5 -25 -25 -25 -20 0 -25 5
-25 25 0 20 5 25 25 25 20 0 25 -5 25 -25z m-50 -50 c0 -20 -5 -25 -25 -25
-20 0 -25 5 -25 25 0 20 5 25 25 25 20 0 25 -5 25 -25z"/>
<path d="M2507 443 c-14 -13 -6 -33 13 -33 13 0 20 7 20 20 0 19 -20 27 -33
13z"/>
<path d="M2600 430 c0 -13 7 -20 20 -20 13 0 20 7 20 20 0 13 -7 20 -20 20
-13 0 -20 -7 -20 -20z"/>
<path d="M2690 430 c0 -15 7 -20 25 -20 18 0 25 5 25 20 0 15 -7 20 -25 20
-18 0 -25 -5 -25 -20z"/>
<path d="M2790 430 c0 -13 7 -20 20 -20 13 0 20 7 20 20 0 13 -7 20 -20 20
-13 0 -20 -7 -20 -20z"/>
<path d="M2890 430 c0 -13 7 -20 20 -20 13 0 20 7 20 20 0 13 -7 20 -20 20
-13 0 -20 -7 -20 -20z"/>
<path d="M100 384 c0 -17 6 -24 20 -24 13 0 20 7 20 19 0 10 -9 21 -20 24 -16
4 -20 0 -20 -19z"/>
<path d="M2463 403 c-21 -8 -15 -43 7 -43 15 0 20 7 20 25 0 25 -4 28 -27 18z"/>
<path d="M30 386 c0 -8 -8 -17 -17 -19 -11 -3 -7 -5 10 -6 22 -1 27 -6 27 -26
0 -20 -5 -25 -27 -26 l-28 0 25 -10 c20 -8 22 -12 10 -19 -8 -5 -11 -12 -8
-15 11 -11 28 5 28 26 0 12 7 19 20 19 14 0 20 7 20 24 0 17 -5 23 -17 22 -12
0 -19 7 -21 22 -4 24 -22 31 -22 8z"/>
<path d="M200 380 c0 -13 7 -20 20 -20 13 0 20 7 20 20 0 13 -7 20 -20 20 -13
0 -20 -7 -20 -20z"/>
<path d="M300 380 c0 -13 7 -20 20 -20 13 0 20 7 20 20 0 13 -7 20 -20 20 -13
0 -20 -7 -20 -20z"/>
<path d="M2550 380 c0 -13 7 -20 20 -20 13 0 20 7 20 20 0 13 -7 20 -20 20
-13 0 -20 -7 -20 -20z"/>
<path d="M2640 380 c0 -13 -7 -20 -20 -20 -15 0 -20 -7 -20 -25 0 -18 5 -25
20 -25 15 0 20 -7 20 -25 0 -18 -5 -25 -20 -25 -13 0 -20 -7 -20 -19 0 -10 9
-21 20 -24 12 -3 20 -14 20 -26 0 -16 6 -21 25 -21 18 0 25 5 25 20 0 15 -7
20 -25 20 -20 0 -25 5 -25 25 0 20 5 25 25 25 18 0 25 -5 25 -20 0 -15 7 -20
25 -20 18 0 25 5 25 20 0 13 7 20 20 20 15 0 20 7 20 25 0 18 -5 25 -20 25
-15 0 -20 7 -20 25 0 20 5 25 25 25 20 0 25 -5 25 -25 0 -18 5 -25 20 -25 15
0 20 7 20 27 0 14 -3 23 -6 20 -10 -10 -44 12 -44 28 0 8 -9 15 -20 15 -13 0
-20 -7 -20 -19 0 -20 -17 -31 -37 -24 -7 3 -13 13 -13 24 0 14 -7 19 -25 19
-18 0 -25 -5 -25 -20z m50 -45 c0 -20 -5 -25 -25 -25 -20 0 -25 5 -25 25 0 20
5 25 25 25 20 0 25 -5 25 -25z m50 -50 c0 -20 -5 -25 -25 -25 -20 0 -25 5 -25
25 0 20 5 25 25 25 20 0 25 -5 25 -25z"/>
<path d="M2840 380 c0 -13 7 -20 20 -20 13 0 20 7 20 20 0 13 -7 20 -20 20
-13 0 -20 -7 -20 -20z"/>
<path d="M2940 380 c0 -13 7 -20 20 -20 13 0 20 7 20 20 0 13 -7 20 -20 20
-13 0 -20 -7 -20 -20z"/>
<path d="M150 333 c0 -16 6 -23 20 -23 15 0 20 7 20 24 0 19 -5 24 -20 23 -14
-1 -20 -8 -20 -24z"/>
<path d="M250 335 c0 -18 5 -25 20 -25 15 0 20 7 20 25 0 18 -5 25 -20 25 -15
0 -20 -7 -20 -25z"/>
<path d="M2400 335 c0 -18 5 -25 20 -25 15 0 20 7 20 25 0 18 -5 25 -20 25
-15 0 -20 -7 -20 -25z"/>
<path d="M2500 335 c0 -18 5 -25 20 -25 15 0 20 7 20 25 0 18 -5 25 -20 25
-15 0 -20 -7 -20 -25z"/>
<path d="M2890 335 c0 -18 5 -25 20 -25 15 0 20 7 20 25 0 18 -5 25 -20 25
-15 0 -20 -7 -20 -25z"/>
<path d="M100 285 c0 -18 5 -25 20 -25 15 0 20 7 20 25 0 18 -5 25 -20 25 -15
0 -20 -7 -20 -25z"/>
<path d="M200 285 c0 -18 5 -25 20 -25 15 0 20 7 20 25 0 18 -5 25 -20 25 -15
0 -20 -7 -20 -25z"/>
<path d="M300 285 c0 -18 5 -25 20 -25 15 0 20 7 20 25 0 18 -5 25 -20 25 -15
0 -20 -7 -20 -25z"/>
<path d="M590 285 c0 -18 5 -25 20 -25 15 0 20 7 20 25 0 18 -5 25 -20 25 -15
0 -20 -7 -20 -25z"/>
<path d="M2350 285 c0 -18 5 -25 20 -25 15 0 20 7 20 25 0 18 -5 25 -20 25
-15 0 -20 -7 -20 -25z"/>
<path d="M2450 287 c0 -16 6 -23 20 -24 15 -1 20 4 20 23 0 17 -5 24 -20 24
-14 0 -20 -7 -20 -23z"/>
<path d="M2550 285 c0 -18 5 -25 20 -25 15 0 20 7 20 25 0 18 -5 25 -20 25
-15 0 -20 -7 -20 -25z"/>
<path d="M2840 285 c0 -18 5 -25 20 -25 15 0 20 7 20 25 0 18 -5 25 -20 25
-15 0 -20 -7 -20 -25z"/>
<path d="M2940 285 c0 -18 5 -25 20 -25 15 0 20 7 20 25 0 18 -5 25 -20 25
-15 0 -20 -7 -20 -25z"/>
<path d="M2280 270 c-13 -8 -12 -10 3 -10 11 0 17 -8 17 -25 0 -20 -5 -25 -25
-25 -19 0 -25 5 -25 21 0 20 0 20 -27 1 -16 -11 -38 -23 -51 -27 -28 -8 -24
-29 6 -33 17 -3 22 2 22 17 0 16 6 21 25 21 18 0 25 -5 25 -20 0 -15 7 -20 25
-20 19 0 25 5 25 21 0 12 8 23 20 26 26 7 27 43 1 43 -11 0 -21 4 -23 10 -2 6
-8 6 -18 0z"/>
<path d="M50 240 c0 -13 7 -20 20 -20 13 0 20 7 20 20 0 13 -7 20 -20 20 -13
0 -20 -7 -20 -20z"/>
<path d="M150 236 c0 -19 4 -23 20 -19 11 3 20 14 20 24 0 12 -7 19 -20 19
-14 0 -20 -7 -20 -24z"/>
<path d="M250 241 c0 -10 9 -21 20 -24 16 -4 20 0 20 19 0 17 -6 24 -20 24
-13 0 -20 -7 -20 -19z"/>
<path d="M540 235 c0 -20 -5 -25 -25 -25 -18 0 -25 -5 -25 -20 0 -15 7 -20 26
-20 15 0 23 4 19 10 -9 15 15 42 32 36 9 -4 13 3 13 19 0 18 -5 25 -20 25 -15
0 -20 -7 -20 -25z"/>
<path d="M640 241 c0 -10 9 -21 20 -24 16 -4 20 0 20 19 0 17 -6 24 -20 24
-13 0 -20 -7 -20 -19z"/>
<path d="M2400 236 c0 -19 4 -23 20 -19 11 3 20 14 20 24 0 12 -7 19 -20 19
-14 0 -20 -7 -20 -24z"/>
<path d="M2500 240 c0 -13 7 -20 20 -20 13 0 20 7 20 20 0 13 -7 20 -20 20
-13 0 -20 -7 -20 -20z"/>
<path d="M2790 235 c0 -20 -5 -25 -25 -25 -18 0 -25 -5 -25 -20 0 -27 36 -27
43 1 3 11 15 23 26 26 28 7 28 43 1 43 -15 0 -20 -7 -20 -25z"/>
<path d="M2890 240 c0 -13 7 -20 20 -20 13 0 20 7 20 20 0 13 -7 20 -20 20
-13 0 -20 -7 -20 -20z"/>
<path d="M740 230 c0 -13 7 -20 20 -20 24 0 27 25 4 34 -23 9 -24 8 -24 -14z"/>
<path d="M100 190 c0 -13 7 -20 20 -20 13 0 20 7 20 20 0 13 -7 20 -20 20 -13
0 -20 -7 -20 -20z"/>
<path d="M200 190 c0 -13 7 -20 20 -20 13 0 20 7 20 20 0 13 -7 20 -20 20 -13
0 -20 -7 -20 -20z"/>
<path d="M300 190 c0 -13 7 -20 20 -20 13 0 20 7 20 20 0 13 -7 20 -20 20 -13
0 -20 -7 -20 -20z"/>
<path d="M590 190 c0 -13 7 -20 20 -20 13 0 20 7 20 20 0 13 -7 20 -20 20 -13
0 -20 -7 -20 -20z"/>
<path d="M690 190 c0 -13 7 -20 20 -20 13 0 20 7 20 20 0 13 -7 20 -20 20 -13
0 -20 -7 -20 -20z"/>
<path d="M790 190 c0 -13 7 -20 20 -20 13 0 20 7 20 20 0 13 -7 20 -20 20 -13
0 -20 -7 -20 -20z"/>
<path d="M2350 190 c0 -13 7 -20 20 -20 13 0 20 7 20 20 0 13 -7 20 -20 20
-13 0 -20 -7 -20 -20z"/>
<path d="M2450 190 c0 -13 7 -20 20 -20 13 0 20 7 20 20 0 13 -7 20 -20 20
-13 0 -20 -7 -20 -20z"/>
<path d="M2550 190 c0 -13 7 -20 20 -20 13 0 20 7 20 20 0 13 -7 20 -20 20
-13 0 -20 -7 -20 -20z"/>
<path d="M2840 190 c0 -13 7 -20 20 -20 13 0 20 7 20 20 0 13 -7 20 -20 20
-13 0 -20 -7 -20 -20z"/>
<path d="M2940 190 c0 -13 7 -20 20 -20 13 0 20 7 20 20 0 13 -7 20 -20 20
-13 0 -20 -7 -20 -20z"/>
<path d="M880 170 c0 -6 -11 -10 -25 -10 -18 0 -25 -5 -25 -20 0 -15 7 -20 25
-20 18 0 25 5 25 19 0 11 8 21 18 23 16 3 16 4 0 10 -10 4 -18 3 -18 -2z"/>
<path d="M50 140 c0 -13 7 -20 18 -20 11 0 18 8 19 20 1 14 -4 20 -18 20 -12
0 -19 -7 -19 -20z"/>
<path d="M150 140 c0 -13 7 -20 20 -20 13 0 20 7 20 20 0 13 -7 20 -20 20 -13
0 -20 -7 -20 -20z"/>
<path d="M250 140 c0 -13 7 -20 20 -20 13 0 20 7 20 20 0 13 -7 20 -20 20 -13
0 -20 -7 -20 -20z"/>
<path d="M350 140 c0 -13 7 -20 20 -20 13 0 20 7 20 20 0 13 -7 20 -20 20 -13
0 -20 -7 -20 -20z"/>
<path d="M440 140 c0 -15 7 -20 25 -20 18 0 25 5 25 20 0 15 -7 20 -25 20 -18
0 -25 -5 -25 -20z"/>
<path d="M540 140 c0 -13 7 -20 20 -20 13 0 20 7 20 20 0 13 -7 20 -20 20 -13
0 -20 -7 -20 -20z"/>
<path d="M640 140 c0 -13 7 -20 20 -20 13 0 20 7 20 20 0 13 -7 20 -20 20 -13
0 -20 -7 -20 -20z"/>
<path d="M740 140 c0 -13 7 -20 20 -20 13 0 20 7 20 20 0 13 -7 20 -20 20 -13
0 -20 -7 -20 -20z"/>
<path d="M930 140 c0 -15 7 -20 25 -20 14 0 25 4 25 8 0 5 -11 14 -25 20 -22
10 -25 9 -25 -8z"/>
<path d="M2110 140 c0 -13 7 -20 20 -20 13 0 20 7 20 20 0 13 -7 20 -20 20
-13 0 -20 -7 -20 -20z"/>
<path d="M2200 140 c0 -15 7 -20 25 -20 18 0 25 5 25 20 0 15 -7 20 -25 20
-18 0 -25 -5 -25 -20z"/>
<path d="M2300 140 c0 -13 7 -20 19 -20 10 0 21 9 24 20 4 16 0 20 -19 20 -17
0 -24 -6 -24 -20z"/>
<path d="M2400 140 c0 -13 7 -20 20 -20 13 0 20 7 20 20 0 13 -7 20 -20 20
-13 0 -20 -7 -20 -20z"/>
<path d="M2500 140 c0 -13 7 -20 20 -20 13 0 20 7 20 20 0 13 -7 20 -20 20
-13 0 -20 -7 -20 -20z"/>
<path d="M2597 140 c3 -11 14 -20 24 -20 12 0 19 7 19 20 0 14 -7 20 -24 20
-19 0 -23 -4 -19 -20z"/>
<path d="M2690 140 c0 -15 7 -20 25 -20 18 0 25 5 25 20 0 15 -7 20 -25 20
-18 0 -25 -5 -25 -20z"/>
<path d="M2790 140 c0 -13 7 -20 20 -20 13 0 20 7 20 20 0 13 -7 20 -20 20
-13 0 -20 -7 -20 -20z"/>
<path d="M2890 140 c0 -13 7 -20 20 -20 13 0 20 7 20 20 0 13 -7 20 -20 20
-13 0 -20 -7 -20 -20z"/>
<path d="M100 90 c0 -13 7 -20 20 -20 13 0 20 7 20 20 0 13 -7 20 -20 20 -13
0 -20 -7 -20 -20z"/>
<path d="M200 90 c0 -13 7 -20 20 -20 13 0 20 7 20 20 0 13 -7 20 -20 20 -13
0 -20 -7 -20 -20z"/>
<path d="M300 90 c0 -13 7 -20 20 -20 13 0 20 7 20 20 0 13 -7 20 -20 20 -13
0 -20 -7 -20 -20z"/>
<path d="M390 90 c0 -15 7 -20 25 -20 18 0 25 5 25 20 0 15 -7 20 -25 20 -18
0 -25 -5 -25 -20z"/>
<path d="M490 90 c0 -13 7 -20 20 -20 13 0 20 7 20 20 0 13 -7 20 -20 20 -13
0 -20 -7 -20 -20z"/>
<path d="M590 90 c0 -13 7 -20 20 -20 13 0 20 7 20 20 0 13 -7 20 -20 20 -13
0 -20 -7 -20 -20z"/>
<path d="M690 90 c0 -13 7 -20 20 -20 13 0 20 7 20 20 0 13 -7 20 -20 20 -13
0 -20 -7 -20 -20z"/>
<path d="M790 90 c0 -13 7 -20 20 -20 13 0 20 7 20 20 0 13 -7 20 -20 20 -13
0 -20 -7 -20 -20z"/>
<path d="M880 90 c0 -15 7 -20 25 -20 18 0 25 5 25 20 0 15 -7 20 -25 20 -18
0 -25 -5 -25 -20z"/>
<path d="M980 90 c0 -13 7 -20 20 -20 13 0 20 7 20 20 0 13 -7 20 -20 20 -13
0 -20 -7 -20 -20z"/>
<path d="M1960 90 c0 -13 7 -20 20 -20 13 0 20 7 20 20 0 13 -7 20 -20 20 -13
0 -20 -7 -20 -20z"/>
<path d="M2060 90 c0 -13 7 -20 20 -20 13 0 20 7 20 20 0 13 -7 20 -20 20 -13
0 -20 -7 -20 -20z"/>
<path d="M2160 90 c0 -13 7 -20 20 -20 13 0 20 7 20 20 0 13 -7 20 -20 20 -13
0 -20 -7 -20 -20z"/>
<path d="M2250 90 c0 -15 7 -20 25 -20 18 0 25 5 25 20 0 15 -7 20 -25 20 -18
0 -25 -5 -25 -20z"/>
<path d="M2350 90 c0 -13 7 -20 20 -20 13 0 20 7 20 20 0 13 -7 20 -20 20 -13
0 -20 -7 -20 -20z"/>
<path d="M2450 90 c0 -13 7 -20 20 -20 13 0 20 7 20 20 0 13 -7 20 -20 20 -13
0 -20 -7 -20 -20z"/>
<path d="M2550 90 c0 -13 7 -20 20 -20 13 0 20 7 20 20 0 13 -7 20 -20 20 -13
0 -20 -7 -20 -20z"/>
<path d="M2644 93 c2 -10 13 -19 24 -21 17 -3 22 2 22 17 0 16 -6 21 -24 21
-17 0 -24 -5 -22 -17z"/>
<path d="M2740 90 c0 -13 7 -20 20 -20 13 0 20 7 20 20 0 13 -7 20 -20 20 -13
0 -20 -7 -20 -20z"/>
<path d="M2840 90 c0 -13 7 -20 20 -20 13 0 20 7 20 20 0 13 -7 20 -20 20 -13
0 -20 -7 -20 -20z"/>
<path d="M2940 90 c0 -13 7 -20 20 -20 13 0 20 7 20 20 0 13 -7 20 -20 20 -13
0 -20 -7 -20 -20z"/>
<path d="M1080 86 c0 -10 9 -16 21 -16 24 0 21 23 -4 28 -10 2 -17 -3 -17 -12z"/>
<path d="M1878 93 c-27 -7 -22 -23 7 -23 16 0 25 6 25 15 0 15 -2 16 -32 8z"/>
<path d="M150 38 c0 -11 7 -18 20 -18 13 0 20 7 20 19 0 14 -6 19 -20 18 -12
-1 -20 -8 -20 -19z"/>
<path d="M250 40 c0 -13 7 -20 20 -20 13 0 20 7 20 20 0 13 -7 20 -20 20 -13
0 -20 -7 -20 -20z"/>
<path d="M350 40 c0 -13 7 -20 20 -20 13 0 20 7 20 20 0 13 -7 20 -20 20 -13
0 -20 -7 -20 -20z"/>
<path d="M440 40 c0 -15 7 -20 25 -20 18 0 25 5 25 20 0 15 -7 20 -25 20 -18
0 -25 -5 -25 -20z"/>
<path d="M540 40 c0 -13 7 -20 20 -20 13 0 20 7 20 20 0 13 -7 20 -20 20 -13
0 -20 -7 -20 -20z"/>
<path d="M640 40 c0 -13 7 -20 20 -20 13 0 20 7 20 20 0 13 -7 20 -20 20 -13
0 -20 -7 -20 -20z"/>
<path d="M740 40 c0 -13 7 -20 20 -20 13 0 20 7 20 20 0 13 -7 20 -20 20 -13
0 -20 -7 -20 -20z"/>
<path d="M840 49 c0 -6 4 -8 9 -4 5 3 13 0 17 -6 4 -7 3 -9 -2 -6 -6 3 -16 2
-24 -4 -11 -6 -8 -9 13 -9 33 0 40 35 7 37 -11 1 -20 -3 -20 -8z"/>
<path d="M930 40 c0 -11 5 -20 11 -20 5 0 8 4 4 9 -3 5 -1 12 4 15 5 4 12 -2
14 -11 4 -14 5 -13 6 5 1 16 -5 22 -19 22 -13 0 -20 -7 -20 -20z"/>
<path d="M1030 40 c0 -13 7 -20 20 -20 13 0 20 7 20 20 0 13 -7 20 -20 20 -13
0 -20 -7 -20 -20z"/>
<path d="M1130 40 c0 -13 7 -20 20 -20 13 0 20 7 20 20 0 13 -7 20 -20 20 -13
0 -20 -7 -20 -20z"/>
<path d="M1230 40 c0 -13 7 -20 20 -20 13 0 20 7 20 20 0 13 -7 20 -20 20 -13
0 -20 -7 -20 -20z"/>
<path d="M1714 44 c3 -9 6 -18 6 -20 0 -2 9 -4 20 -4 13 0 20 7 20 20 0 15 -7
20 -26 20 -20 0 -25 -4 -20 -16z"/>
<path d="M1810 40 c0 -15 7 -20 26 -20 15 0 23 4 19 11 -4 6 -13 8 -21 5 -8
-3 -14 -3 -14 0 0 2 10 9 23 14 21 8 21 9 -5 9 -22 1 -28 -4 -28 -19z"/>
<path d="M1910 40 c0 -13 7 -20 20 -20 13 0 20 7 20 20 0 13 -7 20 -20 20 -13
0 -20 -7 -20 -20z"/>
<path d="M2010 40 c0 -13 7 -20 20 -20 13 0 20 7 20 20 0 13 -7 20 -20 20 -13
0 -20 -7 -20 -20z"/>
<path d="M2110 40 c0 -13 7 -20 20 -20 13 0 20 7 20 20 0 13 -7 20 -20 20 -13
0 -20 -7 -20 -20z"/>
<path d="M2200 40 c0 -15 7 -20 25 -20 18 0 25 5 25 20 0 15 -7 20 -25 20 -18
0 -25 -5 -25 -20z"/>
<path d="M2300 40 c0 -13 7 -20 20 -20 13 0 20 7 20 20 0 13 -7 20 -20 20 -13
0 -20 -7 -20 -20z"/>
<path d="M2400 40 c0 -13 7 -20 20 -20 13 0 20 7 20 20 0 13 -7 20 -20 20 -13
0 -20 -7 -20 -20z"/>
<path d="M2501 43 c-1 -17 5 -23 19 -23 13 0 20 7 20 20 0 11 -5 20 -11 20 -5
0 -7 -4 -4 -10 3 -5 2 -10 -4 -10 -5 0 -12 6 -14 13 -3 6 -6 2 -6 -10z"/>
<path d="M2600 49 c0 -5 4 -8 9 -4 5 3 13 0 17 -6 4 -7 3 -9 -4 -5 -6 3 -13 2
-17 -4 -3 -5 3 -10 14 -10 14 0 21 6 21 20 0 13 -7 20 -20 20 -11 0 -20 -5
-20 -11z"/>
<path d="M2690 40 c0 -15 7 -20 27 -20 26 0 26 1 7 15 -16 13 -16 14 -1 9 9
-3 17 -1 17 5 0 6 -11 11 -25 11 -18 0 -25 -5 -25 -20z"/>
<path d="M2790 40 c0 -13 7 -20 20 -20 13 0 20 7 20 20 0 13 -7 20 -20 20 -13
0 -20 -7 -20 -20z"/>
<path d="M2890 40 c0 -13 7 -20 20 -20 13 0 20 7 20 20 0 13 -7 20 -20 20 -13
0 -20 -7 -20 -20z"/>
<path d="M1320 35 c0 -9 9 -15 25 -15 16 0 25 6 25 15 0 9 -9 15 -25 15 -16 0
-25 -6 -25 -15z"/>
<path d="M1620 35 c0 -8 9 -15 20 -15 11 0 20 7 20 15 0 8 -9 15 -20 15 -11 0
-20 -7 -20 -15z"/>
</g>
</svg>
