<svg version="1.1" id="Layer_1" xmlns="http://www.w3.org/2000/svg" xmlns:xlink="http://www.w3.org/1999/xlink" x="0px" y="0px"
	 width="100%" viewBox="0 0 219 230" enable-background="new 0 0 219 230" xml:space="preserve">
<path fill="#F6F6F6" opacity="1.000000" stroke="none" 
	d="
M1.000000,89.000000 
	C1.000000,59.333340 1.000000,30.166677 1.000000,1.000012 
	C73.999977,1.000008 146.999954,1.000008 219.999954,1.000004 
	C219.999969,77.666634 219.999969,154.333267 219.999985,230.999939 
	C147.000046,230.999954 74.000092,230.999954 1.000068,230.999969 
	C1.000000,183.833328 1.000000,136.666672 1.000000,89.000000 
M67.500008,201.043747 
	C55.836582,201.043671 44.173153,201.050629 32.509739,201.041000 
	C24.859236,201.034683 23.067329,199.275589 23.066544,191.750198 
	C23.061691,145.262314 23.064098,98.774437 23.064108,52.286560 
	C23.064110,41.304131 24.131920,40.215565 34.905888,40.215530 
	C66.730927,40.215431 98.556038,40.182484 130.380905,40.256386 
	C134.438766,40.265808 137.731049,39.330528 138.987732,35.126087 
	C140.550156,29.898745 136.853027,25.949921 130.476639,25.945854 
	C97.485252,25.924818 64.493835,25.922691 31.502451,25.943172 
	C17.198605,25.952051 8.851980,34.269367 8.848652,48.492180 
	C8.837425,96.479668 8.838827,144.467163 8.847657,192.454651 
	C8.850410,207.415314 16.977755,215.545715 31.954947,215.549606 
	C79.442566,215.561966 126.930183,215.563309 174.417801,215.548859 
	C189.497375,215.544266 197.864609,207.146423 197.861267,192.043045 
	C197.854111,159.718338 197.835571,127.393616 197.772430,95.069000 
	C197.768585,93.100952 198.005203,90.579315 196.944046,89.295425 
	C195.332108,87.345123 192.673523,85.106934 190.472580,85.120430 
	C188.268585,85.133942 185.635406,87.400948 184.043213,89.369888 
	C182.993927,90.667450 183.267365,93.184837 183.264984,95.156403 
	C183.226166,127.314636 183.241699,159.472931 183.235489,191.631210 
	C183.233978,199.486115 181.711182,201.038177 173.972519,201.040009 
	C138.815018,201.048279 103.657516,201.043701 67.500008,201.043747 
M97.781555,90.282257 
	C91.554100,96.541328 85.239616,102.717499 79.150749,109.108597 
	C77.255028,111.098412 75.550522,113.490662 74.475555,116.005234 
	C68.873383,129.109818 63.523750,142.322174 58.036491,155.476273 
	C56.612656,158.889496 55.869583,162.268616 58.767040,165.201843 
	C61.647591,168.117935 64.968063,167.546310 68.453499,166.088715 
	C81.907509,160.462265 95.431000,155.001770 108.876862,149.356232 
	C110.802605,148.547638 112.705513,147.324295 114.178452,145.852142 
	C133.855652,126.185318 153.465347,106.450890 173.064621,86.706268 
	C177.826874,81.908707 177.821609,78.302299 173.073593,73.500023 
	C165.694778,66.036873 158.267380,58.621677 150.844757,51.201965 
	C145.192963,45.552406 142.246704,45.537193 136.677032,51.136734 
	C123.871567,64.010849 111.079811,76.898582 97.781555,90.282257 
M163.116119,24.629328 
	C161.942429,25.810823 160.711060,26.941002 159.605743,28.183334 
	C156.147217,32.070591 156.026978,35.525322 159.599319,39.175812 
	C167.868958,47.626358 176.252045,55.966705 184.646774,64.293625 
	C187.696487,67.318703 191.405258,67.692589 194.511765,64.881332 
	C199.312393,60.536964 204.185852,56.081879 208.061966,50.944557 
	C217.898209,37.907768 207.009232,15.362222 189.568481,11.889133 
	C182.356491,10.452962 176.060043,12.074957 170.689972,17.071444 
	C168.253311,19.338591 165.968857,21.769321 163.116119,24.629328 
z"/>
<path fill="#050505" opacity="1.000000" stroke="none" 
	d="
M68.000015,201.043747 
	C103.657516,201.043701 138.815018,201.048279 173.972519,201.040009 
	C181.711182,201.038177 183.233978,199.486115 183.235489,191.631210 
	C183.241699,159.472931 183.226166,127.314636 183.264984,95.156403 
	C183.267365,93.184837 182.993927,90.667450 184.043213,89.369888 
	C185.635406,87.400948 188.268585,85.133942 190.472580,85.120430 
	C192.673523,85.106934 195.332108,87.345123 196.944046,89.295425 
	C198.005203,90.579315 197.768585,93.100952 197.772430,95.069000 
	C197.835571,127.393616 197.854111,159.718338 197.861267,192.043045 
	C197.864609,207.146423 189.497375,215.544266 174.417801,215.548859 
	C126.930183,215.563309 79.442566,215.561966 31.954947,215.549606 
	C16.977755,215.545715 8.850410,207.415314 8.847657,192.454651 
	C8.838827,144.467163 8.837425,96.479668 8.848652,48.492180 
	C8.851980,34.269367 17.198605,25.952051 31.502451,25.943172 
	C64.493835,25.922691 97.485252,25.924818 130.476639,25.945854 
	C136.853027,25.949921 140.550156,29.898745 138.987732,35.126087 
	C137.731049,39.330528 134.438766,40.265808 130.380905,40.256386 
	C98.556038,40.182484 66.730927,40.215431 34.905888,40.215530 
	C24.131920,40.215565 23.064110,41.304131 23.064108,52.286560 
	C23.064098,98.774437 23.061691,145.262314 23.066544,191.750198 
	C23.067329,199.275589 24.859236,201.034683 32.509739,201.041000 
	C44.173153,201.050629 55.836582,201.043671 68.000015,201.043747 
z"/>
<path fill="#020202" opacity="1.000000" stroke="none" 
	d="
M98.032021,90.031525 
	C111.079811,76.898582 123.871567,64.010849 136.677032,51.136734 
	C142.246704,45.537193 145.192963,45.552406 150.844757,51.201965 
	C158.267380,58.621677 165.694778,66.036873 173.073593,73.500023 
	C177.821609,78.302299 177.826874,81.908707 173.064621,86.706268 
	C153.465347,106.450890 133.855652,126.185318 114.178452,145.852142 
	C112.705513,147.324295 110.802605,148.547638 108.876862,149.356232 
	C95.431000,155.001770 81.907509,160.462265 68.453499,166.088715 
	C64.968063,167.546310 61.647591,168.117935 58.767040,165.201843 
	C55.869583,162.268616 56.612656,158.889496 58.036491,155.476273 
	C63.523750,142.322174 68.873383,129.109818 74.475555,116.005234 
	C75.550522,113.490662 77.255028,111.098412 79.150749,109.108597 
	C85.239616,102.717499 91.554100,96.541328 98.032021,90.031525 
M147.463074,91.963051 
	C151.363281,88.141716 155.263504,84.320381 158.661072,80.991516 
	C153.182159,75.599312 148.053391,70.551704 143.667282,66.235008 
	C126.881317,82.687790 109.669075,99.558388 92.522606,116.364525 
	C97.677811,121.474533 102.721344,126.473846 107.621147,131.330673 
	C120.699524,118.409966 133.831284,105.436508 147.463074,91.963051 
M78.218719,144.067459 
	C78.765808,144.682144 79.557007,145.922806 79.823807,145.818756 
	C84.782043,143.885147 89.677849,141.791412 93.853622,140.039017 
	C90.756638,136.412170 87.761765,132.904907 84.513412,129.100800 
	C82.393036,134.227570 80.506592,138.788727 78.218719,144.067459 
z"/>
<path fill="#020202" opacity="1.000000" stroke="none" 
	d="
M163.365738,24.377586 
	C165.968857,21.769321 168.253311,19.338591 170.689972,17.071444 
	C176.060043,12.074957 182.356491,10.452962 189.568481,11.889133 
	C207.009232,15.362222 217.898209,37.907768 208.061966,50.944557 
	C204.185852,56.081879 199.312393,60.536964 194.511765,64.881332 
	C191.405258,67.692589 187.696487,67.318703 184.646774,64.293625 
	C176.252045,55.966705 167.868958,47.626358 159.599319,39.175812 
	C156.026978,35.525322 156.147217,32.070591 159.605743,28.183334 
	C160.711060,26.941002 161.942429,25.810823 163.365738,24.377586 
M181.104858,40.388706 
	C183.999451,43.291435 186.894043,46.194168 190.914169,50.225590 
	C193.490585,45.501907 198.296692,40.517204 197.247894,37.758011 
	C195.467148,33.073177 190.567673,28.253202 185.859085,26.503441 
	C183.090866,25.474737 178.161530,30.261566 174.204224,32.432678 
	C174.163498,33.134937 174.122757,33.837196 174.082031,34.539455 
	C176.255249,36.321972 178.428467,38.104488 181.104858,40.388706 
z"/>
<path fill="#F5F5F5" opacity="1.000000" stroke="none" 
	d="
M147.213074,92.213043 
	C133.831284,105.436508 120.699524,118.409966 107.621147,131.330673 
	C102.721344,126.473846 97.677811,121.474533 92.522606,116.364525 
	C109.669075,99.558388 126.881317,82.687790 143.667282,66.235008 
	C148.053391,70.551704 153.182159,75.599312 158.661072,80.991516 
	C155.263504,84.320381 151.363281,88.141716 147.213074,92.213043 
z"/>
<path fill="#EDEDED" opacity="1.000000" stroke="none" 
	d="
M78.419434,143.708664 
	C80.506592,138.788727 82.393036,134.227570 84.513412,129.100800 
	C87.761765,132.904907 90.756638,136.412170 93.853622,140.039017 
	C89.677849,141.791412 84.782043,143.885147 79.823807,145.818756 
	C79.557007,145.922806 78.765808,144.682144 78.419434,143.708664 
z"/>
<path fill="#F1F1F1" opacity="1.000000" stroke="none" 
	d="
M180.853271,40.137856 
	C178.428467,38.104488 176.255249,36.321972 174.082031,34.539455 
	C174.122757,33.837196 174.163498,33.134937 174.204224,32.432678 
	C178.161530,30.261566 183.090866,25.474737 185.859085,26.503441 
	C190.567673,28.253202 195.467148,33.073177 197.247894,37.758011 
	C198.296692,40.517204 193.490585,45.501907 190.914169,50.225590 
	C186.894043,46.194168 183.999451,43.291435 180.853271,40.137856 
z"/>
</svg>